<svg xmlns="http://www.w3.org/2000/svg" viewBox="0 0 456 208" style="fill: #0078bf;">
		<path d="M130.2,100.5c7.2,1.6,14.6,1.3,21.9,0.8c5.9-0.4,11.6-2.1,16.3-5.9c0.7-0.6,1.1-0.2,1.7,0.2
			c2.8,2.2,6,3.8,9.5,4.5c10.5,2.2,21,2.3,31.4-0.5c5.1-1.3,9.6-4,12.9-8.2c4.2-5.4,6.3-11.6,6.4-18.4c0.1-10.5,0-20.9,0-31.4
			c0,0,0,0,0,0c0-10.7,0-21.4,0-32.1c0-2.8-0.3-3-3-3c-5.1,0-10.2,0-15.4,0c-4,0-4.3,0.3-4.3,4.3c0,19.6,0,39.1,0,58.7
			c0,2.9,0,5.8-0.8,8.7c-1,3.8-3.3,6.3-7.3,6.8c-3.3,0.4-6.7,0.5-10,0c-4.8-0.7-7.4-3.3-8.4-8c-0.5-2.3-0.6-4.6-0.6-6.9
			c0-20.1,0-40.2,0-60.3c0-2.9-0.4-3.3-3.2-3.3c-5.3,0-10.6,0-15.9,0c-3.3,0-3.7,0.4-3.7,3.7c0,19.9,0,39.9,0,59.8
			c0,2.7-0.1,5.4-0.7,8c-1,3.7-3.3,6.1-7.1,6.8c-3.7,0.7-7.5,0.6-11.2,0.1c-4.4-0.6-7-3.2-8-7.4c-0.5-1.9-0.7-3.8-0.7-5.7
			c-0.1-20.7-0.2-41.4-0.3-62.1c0-2.7-0.4-3.1-3.2-3.2c-3.7,0-7.4,0-11.1,0c-1.7,0-3.4,0-5.1,0c-2.4,0.1-3.2,0.9-3.2,3.2
			c0,0.7,0,1.3,0,2c0,19.2,0,38.4,0,57.7c0,5.7,0.6,11.3,3.2,16.5C114.2,94.4,121.4,98.5,130.2,100.5z"/>
        <path d="M332.9,101.5c5.3,0,10.6,0,15.9,0c2.9,0,3.1-0.3,3.1-3.1c0.1-19.7,0.1-39.4,0.2-59.1c0-1.3,0-2.6,0.1-4
			c0-1.6,0.3-3.2,0.7-4.7c1.1-4,3.5-6.6,7.6-7.3c3.9-0.6,7.8-0.7,11.7,0c3.5,0.6,5.6,2.8,6.5,6.3c0.5,2.2,0.7,4.3,0.7,6.6
			c0,20.7,0,41.4,0,62.1c0,2.2,0.8,3.3,3,3.3c5.9,0.1,11.9,0,17.8,0.1c1.2,0,1.7-0.6,1.8-1.7c0.1-0.6,0.1-1.2,0.1-1.8
			c0-19.7,0-39.4,0-59.2c0-2.1,0-4.3,0.4-6.4c0.8-5.1,3.5-8.3,8.2-9.2c3.9-0.7,7.8-0.7,11.7,0c3,0.5,5,2.4,5.9,5.3
			c0.6,1.9,0.9,3.9,1,5.8c0.1,2.5,0.1,5.1,0.1,7.6c0,18.7,0,37.5,0.1,56.2c0,3,0.3,3.3,3.3,3.3c5.6,0,11.1,0,16.7,0
			c2.5,0,2.7-0.2,2.7-2.8c0-10.7,0-21.4,0-32.1c0-7.7,0-15.3,0-23c0-4,0.2-8-0.3-12c-1.4-12-7.4-20.1-19.3-23.4
			c-7.5-2.1-15.1-1.9-22.8-1.5c-6.4,0.4-12.5,2-17.6,6.1c-0.6,0.5-1,0.1-1.4-0.2c-3.1-2.4-6.6-4-10.4-4.8C371.5,6,362.7,6.2,354,7.5
			c-5.7,0.9-11.1,2.9-15.5,6.7c-6.7,5.7-9.1,13.4-9.1,21.8c-0.1,20.6,0,41.2,0,61.8C329.4,100.8,330,101.5,332.9,101.5z"/>
        <path d="M93.1,117.6c3.7-12.2,4.2-24.3-1.5-36c-3.9-7.9-10.5-13-18.8-15.5c-6.9-2.1-14-3.3-21-4.9
			c-5.9-1.4-11.9-2.6-17.5-5.4c-4.5-2.2-7-5.6-7.9-10.8c-1.6-9.2,6.5-18,14.6-18.3c3.6-0.1,7.2-0.2,10.7-0.2c14-0.1,28,0,42-0.1
			c2.5,0,3-0.6,3-3c0-4.7,0-9.4,0-14c0-2.2-0.4-2.8-2.7-2.7C76.2,6.9,58.4,6,40.6,7.3C34,7.8,27.5,9.2,21.8,12.7
			c-8,4.9-14.2,11.5-16.4,20.8c-1.6,6.7-1.2,13.5-0.1,20.3c0.6,3.8,1.8,7.3,4.1,10.5c4.3,5.6,9.9,9.3,16.4,11.7
			c10.5,3.9,21.5,5.6,32.3,7.9c4.6,1,8.6,2.9,11.8,6.1c4.5,4.5,5.3,10.1,3.7,16.1c-2.4,8.7-10.3,14.5-19.8,14.5
			c-14.9,0-29.7,0-44.6,0c-0.6,0-1.1,0-1.7,0c-1.8,0.1-2.5,0.8-2.5,2.6c0,5.2,0,10.5,0,15.7c0,2.3,0.3,2.5,2.6,2.5
			c8.3,0,16.6,0,26.7,0c7.4-0.2,16.6,0.4,25.8-0.3c14.2-1,23.8-9.3,31.4-20.5C92.3,119.8,92.8,118.7,93.1,117.6z"/>
        <path d="M448.6,120.7c-39.3,0-78.5,0-117.8,0c-0.3,0-0.7,0-1,0c-0.8-0.1-1,0.3-1.1,1c-0.4,4.8-2.4,9-5.3,12.8
			c-2.1,2.7-4.6,4.8-7.7,7c1,0,1.5,0,2,0c43.8,0,87.6,0,131.4,0c2.6,0,3-0.3,3-3c0-4.8,0-9.7,0-14.5
			C452,121.1,451.4,120.7,448.6,120.7z"/>
        <path d="M319.2,76.2c0-21.9,0-43.8,0-65.8c0-3.3-0.5-3.8-3.9-3.8c-4.9,0-9.8,0-14.7,0c-3.3,0-4,0.7-4,3.9
			c0,23.1,0,46.3,0,69.4c0,0.6,0,1.1,0,1.7c0,0.7-0.2,1-0.9,1.1c-5.9,0.9-11.8,1.5-17.8,1.2c-7.2-0.3-11.5-3.8-13.5-10.7
			c-1.2-4.2-1.4-8.5-1.4-12.8c-0.1-16.9,0-33.7,0-50.6c0-2.6-0.6-3.2-3.2-3.2c-5.5,0-10.9,0-16.4,0c-2.5,0-3,0.5-3,2.9
			c0,17.8,0,35.6,0,53.4c0,4.6,0.6,9.1,1.7,13.6c3.3,13.9,11.6,21.7,25.6,24.1c8.7,1.4,17.5,0.9,26.2,0.8c2.7,0,2.7-0.1,2.7,2.6
			c0,4.2,0.1,8.5-0.6,12.7c-0.5,2.6-1.6,3.6-4.2,3.9c-1.2,0.1-2.4,0.1-3.6,0.1c-60.9,0-121.8,0-182.8,0c-1.5,0-2.1,0.4-2.4,1.9
			c-0.1,0.5-0.3,1-0.4,1.6c-0.9,3.1-2.4,6.1-4.5,8.7c-1.3,1.5-2.5,2.8-4.6,4.6c-1.9,1.6-3.7,2.6-5.9,4.1c0.6,0,0.8,0,1,0
			c64.4,0,128.9,0,193.3,0c4.1,0,8.2-0.4,12.3-1.3c9.6-2.1,17.2-7,21.3-16.2c2.2-5,3.4-10.3,3.5-15.7
			C319.3,97.5,319.2,86.9,319.2,76.2z"/>
        <path d="M230.2,41.7c0,10.5,0.1,20.9,0,31.4c-0.1,6.8-2.2,13-6.4,18.4c-3.3,4.2-7.8,6.8-12.9,8.2
		c-10.4,2.7-20.9,2.7-31.4,0.5c-3.5-0.7-6.6-2.4-9.5-4.5c-0.5-0.4-0.9-0.8-1.7-0.2c-4.8,3.8-10.4,5.6-16.3,5.9
		c-7.3,0.4-14.6,0.8-21.9-0.8c-8.8-2-16-6.1-20.2-14.5c-2.6-5.2-3.2-10.8-3.2-16.5c0-19.2,0-38.4,0-57.7c0-0.7,0-1.3,0-2
		c0.1-2.3,0.9-3.1,3.2-3.2c1.7,0,3.4,0,5.1,0c3.7,0,7.4,0,11.1,0c2.7,0,3.2,0.4,3.2,3.2c0.1,20.7,0.2,41.4,0.3,62.1
		c0,1.9,0.3,3.8,0.7,5.7c1,4.2,3.6,6.8,8,7.4c3.7,0.5,7.5,0.6,11.2-0.1c3.8-0.7,6.1-3.1,7.1-6.8c0.7-2.6,0.7-5.3,0.7-8
		c0-19.9,0-39.9,0-59.8c0-3.3,0.4-3.7,3.7-3.7c5.3,0,10.6,0,15.9,0c2.8,0,3.2,0.4,3.2,3.3c0,20.1,0,40.2,0,60.3
		c0,2.3,0.1,4.6,0.6,6.9c1,4.8,3.6,7.4,8.4,8c3.3,0.5,6.7,0.4,10,0c4.1-0.5,6.3-3,7.3-6.8c0.8-2.9,0.8-5.8,0.8-8.7
		c0-19.6,0-39.1,0-58.7c0-4,0.3-4.3,4.3-4.3c5.1,0,10.2,0,15.4,0c2.7,0,3,0.3,3,3C230.2,20.4,230.2,31,230.2,41.7
		C230.2,41.7,230.2,41.7,230.2,41.7z"/>
        <path d="M452,66.7c0,10.7,0,21.4,0,32.1c0,2.5-0.2,2.8-2.7,2.8c-5.6,0-11.1,0-16.7,0c-3,0-3.3-0.3-3.3-3.3
		c0-18.7,0-37.5-0.1-56.2c0-2.5,0-5.1-0.1-7.6c-0.1-2-0.4-3.9-1-5.8c-1-2.9-2.9-4.8-5.9-5.3c-3.9-0.7-7.8-0.7-11.7,0
		c-4.7,0.9-7.4,4-8.2,9.2c-0.3,2.1-0.4,4.3-0.4,6.4c0,19.7,0,39.4,0,59.2c0,0.6,0,1.2-0.1,1.8c-0.1,1.1-0.7,1.7-1.8,1.7
		c-5.9,0-11.9,0-17.8-0.1c-2.1,0-3-1.1-3-3.3c0-20.7,0-41.4,0-62.1c0-2.2-0.2-4.4-0.7-6.6c-0.8-3.5-3-5.6-6.5-6.3
		c-3.9-0.7-7.8-0.6-11.7,0c-4.1,0.7-6.6,3.3-7.6,7.3c-0.4,1.5-0.7,3.1-0.7,4.7c0,1.3-0.1,2.6-0.1,4C352,59,352,78.7,351.9,98.4
		c0,2.8-0.3,3.1-3.1,3.1c-5.3,0-10.6,0-15.9,0c-2.9,0-3.6-0.7-3.6-3.7c0-20.6-0.1-41.2,0-61.8c0-8.4,2.4-16.1,9.1-21.8
		c4.5-3.9,9.8-5.9,15.5-6.7c8.7-1.3,17.4-1.5,26.1,0.4c3.8,0.9,7.3,2.4,10.4,4.8c0.4,0.3,0.8,0.7,1.4,0.2c5.2-4.1,11.2-5.7,17.6-6.1
		c7.6-0.5,15.3-0.6,22.8,1.5c11.9,3.3,17.9,11.4,19.3,23.4c0.5,4,0.3,8,0.3,12C452,51.4,452,59.1,452,66.7z"/>
        <path d="M34.4,141.5c-10.1,0-18.4,0-26.7,0c-2.3,0-2.6-0.3-2.6-2.5c0-5.2,0-10.5,0-15.7c0-1.8,0.6-2.4,2.5-2.6
		c0.5,0,1.1,0,1.7,0c14.9,0,29.7,0,44.6,0c9.5,0,17.4-5.8,19.8-14.5c1.6-6,0.8-11.6-3.7-16.1c-3.2-3.2-7.2-5.2-11.8-6.1
		c-10.9-2.3-21.9-4-32.3-7.9C19.3,73.6,13.6,70,9.4,64.3C7,61.2,5.9,57.6,5.2,53.9c-1.1-6.8-1.5-13.7,0.1-20.3
		c2.3-9.3,8.4-15.9,16.4-20.8C27.5,9.2,34,7.8,40.6,7.3C58.4,6,76.2,6.9,94,6.7c2.3,0,2.7,0.5,2.7,2.7c0,4.7,0,9.4,0,14
		c0,2.5-0.5,3-3,3c-14,0-28,0-42,0.1c-3.6,0-7.2,0.1-10.7,0.2C32.9,27,24.8,35.8,26.4,45c0.9,5.1,3.5,8.5,7.9,10.8
		c5.5,2.8,11.5,4,17.5,5.4c7,1.6,14.2,2.8,21,4.9c8.3,2.5,14.9,7.6,18.8,15.5c5.7,11.7,5.2,23.8,1.5,36c-0.5,1.3-1.2,2.4-1.9,3.8
		c-7.6,11.2-16.8,18.8-31,19.8C51,141.9,41.8,141.3,34.4,141.5z"/>
        <path d="M315.7,141.5c3.1-2.2,5.6-4.4,7.7-7c2.9-3.8,4.9-8,5.3-12.8c0.1-0.7,0.3-1.1,1.1-1c0.3,0,0.7,0,1,0
		c39.3,0,78.5,0,117.8,0c2.9,0,3.4,0.5,3.4,3.3c0,4.8,0,9.7,0,14.5c0,2.6-0.4,3-3,3c-43.8,0-87.6,0-131.4,0
		C317.1,141.5,316.7,141.5,315.7,141.5z"/>

	<path d="M248.5,188.9c0-2.9,0-5.7,0-8.6c0-3,0-3,3-3.4c0.2,0,0.3-0.1,0.5-0.1c2.9-0.6,4.5,0.7,4.5,3.6
		c0,5.8,0,11.7,0,17.5c0,1.9,0.6,2.4,2.4,2.5c3.4,0.1,3.7-0.5,3.7-3.3c-0.1-5.7,0-11.4,0-17c0-3.8-2.4-7.3-6.1-8.3
		c-3.4-0.9-6.8-0.7-10.1,0.5c-0.4,0.1-0.7,0.4-1.3,0.2c-2.8-1.3-5.7-1.4-8.7-1c-5.1,0.6-7.6,3.9-7.8,8.4c-0.3,6.1-0.1,12.2-0.1,18.3
		c0,1.3,0.6,1.9,1.7,2.2c2.7,0.7,4.3-0.5,4.3-3.2c0-5.6,0-11.3,0-16.9c0-2.4,0.8-3.1,3.1-3.4c0.8-0.1,1.6,0,2.4,0
		c2.2,0.1,2.5,0.3,2.5,2.6c0,6.2,0,12.3,0,18.5c0,1.4,0.5,2.2,1.9,2.4c0.8,0.1,1.7,0.1,2.5-0.1c1.2-0.2,1.8-0.8,1.7-2.2
		C248.4,195.1,248.5,192,248.5,188.9z M289.2,188.5c0-2.5,0-5.1,0-7.6c0-3.5,0-3.5,3.3-4.1c3.1-0.6,4.6,0.7,4.6,3.8
		c0,5.7,0,11.5,0,17.2c0,2.1,0.6,2.6,3,2.6c2.4,0,3.1-0.5,3.1-2.5c0-5.9,0-11.9,0-17.8c0-1.7-0.5-3.3-1.3-4.7
		c-1.8-3.2-4.9-4.1-8.3-4.2c-2.3-0.1-4.7,0.1-6.9,1.2c-0.3,0.1-0.6,0.3-1,0.1c-2.8-1.2-5.6-1.4-8.7-1.1c-4.6,0.5-7.9,4-7.9,8.8
		c0,5.8,0,11.7,0,17.5c0,2.2,0.6,2.7,3,2.7c2.4,0,3-0.5,3-2.7c0-5.8,0-11.6,0-17.3c0-2.4,0.7-3,3-3.5c1-0.2,1.8,0.1,2.7,0.1
		c1.9,0,2.3,0.4,2.3,2.3c0,6.2,0,12.4,0,18.6c0,2,0.7,2.6,3,2.6c2.4,0,3-0.5,3-2.6C289.2,194.8,289.2,191.6,289.2,188.5z
		 M188.3,183.6c0,3.4,0,6.8,0,10.2c0,0.4,0.3,0.9-0.5,1.3c-3.8,1.7-7.7-0.6-7.8-4.8c0-5.1-0.2-10.2,0.1-15.3c0.1-3.3-2-4.1-4.7-3.3
		c-1.1,0.3-1.4,0.9-1.4,1.9c0,5,0,10,0,15c0,1.5,0,2.9,0.3,4.4c0.6,3.2,3.4,6.4,6.5,7.1c2.6,0.6,5.2,0.4,7.8,0.1
		c1-0.1,1.9-0.9,3-0.5c2.7,1,5.5,0.9,8.3,0.7c2.7-0.1,4.9-1.3,6.6-3.6c1.8-2.4,2-5.2,2.1-8c0.2-4.6-0.1-9.1,0.1-13.7
		c0.2-3.5-2.1-4.2-4.8-3.4c-1,0.3-1.3,0.9-1.3,1.8c0,4.7,0,9.3,0,14c0,1-0.1,2.1-0.3,3.1c-0.8,3.9-2.9,5.5-6.8,4.6
		c-0.9-0.2-1.3-0.6-1.3-1.7c0.1-6.5,0-13.1,0.1-19.6c0-1.2-0.4-1.9-1.6-2.4c-2.5-1-4.5,0.3-4.5,2.9
		C188.3,177.6,188.3,180.6,188.3,183.6z M151,172.2c0-2.8-0.1-5.5,0-8.3c0.1-1.4-0.6-2.1-1.8-2.3c-2.3-0.3-4.3,0-4.3,2.3
		c0.1,11.4,0,22.7,0,34.1c0,1.4,0.7,2.1,2,2.4c2.8,0.6,4.1-0.5,4.1-3.3c0-5.8,0.1-11.7-0.1-17.5c0-1.7,0.7-2.2,2-2.4
		c1.2-0.2,2.5-0.3,3.7-0.4c3.5-0.3,4.8,1.7,4.8,4.8c0,5.4,0,10.8,0,16.2c0,1.5,0.6,2.3,2,2.5c0.7,0.1,1.5,0.1,2.2,0
		c1.2-0.2,2-0.8,1.9-2.3c-0.1-3.3,0-6.7-0.1-10c-0.1-3.2,0.3-6.3-0.3-9.5c-0.8-4.5-5.6-8.1-10.1-7.4
		C155.2,171.5,153.1,171.9,151,172.2z M111,167.7c0.8,0,1.4,0,2,0c1.6,0.1,2.1-0.8,2.1-2.2c0.1-2.2-0.4-3.1-1.9-3.2
		c-4-0.3-7.9-0.9-11.9-0.3c-4.2,0.6-8.6,3.4-8.9,8.1c-0.2,3.8,1,6.6,3.7,8.9c2.1,1.8,4.6,3.1,6.9,4.5c2.1,1.3,4.3,2.4,5.9,4.3
		c1.7,1.9,0.8,5.9-1.6,6.6c-1.5,0.4-3,0.7-4.6,0.7c-2.6,0.1-5.1-0.6-7.7-0.3c-0.5,0-1-0.2-1.3,0.4c-0.8,1.2-0.6,2.5-0.3,3.8
		c0.3,1.1,1.3,1.2,2.1,1.2c3.5,0.3,7,1,10.6,0.4c2.7-0.4,5.3-1.2,7.3-3.2c1.8-1.8,2.3-4,2.5-6.5c0.1-2.9-0.5-5.4-2.5-7.5
		c-2.3-2.4-5.2-4-8-5.7c-2.1-1.2-4.2-2.3-5.9-4.1c-1.8-2-1.2-4.7,1.4-5.5c1.5-0.4,3.1-0.5,4.6-0.6
		C107.3,167.2,109.2,167.9,111,167.7z M363.8,172.4c0-2.8,0-5.6,0-8.3c0-1.9-0.6-2.4-2.8-2.4c-2.3,0-3,0.5-3,2.4
		c0,11.4,0,22.7,0,34.1c0,1.8,0.7,2.4,2.7,2.4c2.4,0,3.1-0.5,3.1-2.3c0-6.3,0-12.5,0-18.8c0-1.2,0.3-1.6,1.5-1.9
		c2-0.6,4.1-0.6,6.1-0.5c1.3,0.1,2.3,0.9,2.7,2.3c0.4,1.4,0.6,2.8,0.6,4.3c0,4.8,0.1,9.7,0,14.5c0,1.6,0.8,2.2,2,2.4
		c2.5,0.5,3.7-0.5,3.7-3.1c0-5.5,0-10.9,0-16.4c0-1.1-0.1-2.1-0.4-3.1c-1-3.1-2.8-5.3-6.2-6.2C370.4,170.9,367.2,171.6,363.8,172.4z
		 M403.2,181.7c0,1.1,0,2.1,0,3.2c-0.1,2.4,0.3,4.8-0.5,7.2c-0.6,1.7-1.6,2.8-3.2,3c-2.1,0.3-4.3,0.5-5.6-1.8
		c-0.8-1.4-1.1-2.8-1.1-4.3c-0.1-4.9,0-9.8,0-14.6c0-2.1-0.6-2.7-2.7-2.7c-2.3-0.1-3.3,0.4-3.3,1.9c0.1,5.9-0.3,11.8,0.3,17.8
		c0.6,5.8,5.6,10.2,12.6,9.3c6.7-0.8,9.5-5.7,9.7-11.1c0.2-5.1,0-10.3,0.1-15.4c0-1.4-0.6-2.3-1.9-2.4c-3.2-0.3-4.4,0.2-4.2,3.3
		C403.4,177.1,403.2,179.4,403.2,181.7z M320.4,171.5c-1.6,0-2.8-0.1-3.9,0c-2.6,0.3-5.1,1-6.4,3.5c-1.3,2.6-1.1,5.2,0.5,7.7
		c1.4,2.3,3.8,3.3,5.9,4.7c1.7,1.1,3.5,2.1,5.1,3.2c0.9,0.6,1.6,1.6,1.3,2.8c-0.3,1.3-1.4,1.7-2.6,1.8c-0.5,0-1,0-1.4,0
		c-2.6,0.2-5.3-0.4-7.9-0.3c-0.8,0-1.5,0.2-1.7,1.1c-0.6,2.6,0.4,3.9,3,4c0.3,0,0.5,0,0.8,0c3.4,0.5,6.7,0.6,10-0.1
		c6-1.2,7.1-7.8,4.5-11.7c-1.6-2.3-3.9-3.5-6.2-4.9c-1.6-1-3.2-1.9-4.8-2.9c-1-0.6-1.7-1.6-1.4-2.8c0.4-1.2,1.4-1.4,2.6-1.3
		c2.7,0.2,5.4-0.2,8.1,0.3c1,0.2,2.2,0.2,2.4-1.4c0.3-2.5-0.3-3.5-2-3.7C324.3,171.6,322.1,171.3,320.4,171.5z M120.8,185.9
		c0,1.8-0.1,3.7,0.3,5.5c1,4.4,3.2,7.7,7.9,8.9c3.3,0.8,6.5,0.3,9.8-0.3c1-0.2,1.4-1,1.4-2c0-1.1,0.3-2.4-1.1-3
		c-0.3-0.1-0.5-0.3-0.9-0.2c-2.2,0.6-4.4,0.2-6.6,0.3c-2,0.1-3.6-1.1-4.1-3c-1.1-4.1-1.1-8.2,0-12.3c0.4-1.5,1.6-2.6,3.2-2.9
		c2.3-0.4,4.6-0.1,6.9,0c1.7,0.1,2.4-0.2,2.6-1.5c0.3-2.2-0.3-3.4-1.9-3.6c-2.8-0.4-5.6-0.8-8.4-0.3c-2.7,0.5-4.9,1.6-6.5,3.9
		C121,178.5,120.5,182.1,120.8,185.9z M333.5,186.3c-0.3,1.5,0.2,3.3,0.4,5.2c0.1,0.8,0.5,1.6,0.8,2.4c1.5,4.3,6.5,7.6,11,6.9
		c1.8-0.3,3.5-0.1,5.3-0.5c1-0.3,2-0.6,1.9-1.6c0-1.2,0.8-2.9-1.1-3.6c-0.2-0.1-0.5-0.3-0.7-0.2c-1.9,0.7-3.9,0.2-5.8,0.3
		c-2.3,0.1-4.2-0.3-5.1-3.4c-1.1-3.8-1-7.8,0-11.6c0.4-1.7,1.6-3,3.3-3.2c2.2-0.2,4.5-0.3,6.7,0c1.2,0.2,2,0,2.6-0.8
		c0.5-0.8,0-3.4-0.6-4c-0.3-0.2-0.5-0.3-0.8-0.4c-2.9-0.2-5.8-0.9-8.7-0.3c-2.5,0.5-4.7,1.5-6.3,3.6
		C333.9,178.3,333.4,182,333.5,186.3z M422,181c0-5.6,0-11.2,0-16.9c0-2-0.6-2.5-2.8-2.6c-2.3,0-2.9,0.5-2.9,2.5
		c0,11.3,0,22.6,0,33.9c0,2,0.6,2.5,2.9,2.5c2.2,0,2.8-0.5,2.8-2.6C422,192.3,422,186.7,422,181z M44.3,186.1c0-4,0-8.1,0-12.1
		c0-2-0.7-2.6-3-2.6c-2.4,0-3,0.5-3,2.6c0,7.9,0,15.9,0,23.8c0,2,0.7,2.6,3,2.6c2.4,0,3-0.5,3-2.6C44.3,194,44.3,190.1,44.3,186.1z
		 M215.7,185.9c0,4.1,0,8.2,0,12.3c0,0.5-0.2,1.1,0.3,1.5c1.2,1,2.7,1,4,0.7c1.2-0.3,1.7-1.4,1.7-2.7c-0.1-2.5,0-5.1,0-7.6
		c0-5.3,0-10.5,0-15.8c0-2-1-2.8-3.1-2.8c-2.3,0-2.9,0.5-2.9,2.7C215.7,178.1,215.7,182,215.7,185.9z M221.7,165
		c0.1-4.6-0.5-3.7-3.7-3.7c-0.3,0-0.5,0-0.8,0c-1,0-1.6,0.5-1.5,1.5c0,1.1,0.1,2.2,0,3.3c-0.1,2.2,0.4,2.5,2.4,2.5
		C221.1,168.5,221.8,169.5,221.7,165z M44.3,165c0-0.6,0-1.3,0-1.9c0.1-1.4-0.5-1.9-1.9-1.9c-3.9,0.1-4.3-0.9-4.2,4.2
		c0,0.2,0,0.4,0,0.6c0,2.2,0.6,2.6,2.4,2.5C44.5,168.6,44.4,168.8,44.3,165z"/>
        <path d="M64.5,188.4c-2.2,0-4.5,0-6.7,0c-0.9,0-1.1,0.3-1.1,1.1c0,2.9,1.4,5.8,5.4,5.6c3-0.2,6,0.1,9-0.3
		c1.1-0.1,1.8,0.2,1.9,1.5c0.1,2.4-0.3,3.4-1.6,3.6c-1.1,0.2-2.1,0.4-3.2,0.5c-3.7,0.3-7.5,0.9-11.1-0.6c-2.9-1.2-5-3.3-5.7-6.3
		c-1.1-4.7-1.2-9.6-0.1-14.2c1.1-4.6,4.4-7.3,9.3-7.7c3.3-0.3,6.2,0,9,2.1c2.7,2.1,3.8,4.9,4.1,8.1c0.1,1.5,0,3,0,4.5
		c0,1.6-0.7,2.3-2.3,2.3C69,188.4,66.8,188.4,64.5,188.4z M62.1,183.3c1.5,0,3,0,4.5,0c0.7,0,1-0.2,1-1c0-3-1.8-5.5-5.2-5.5
		c-3.8,0-5.3,2.2-5.6,5.1c-0.1,1,0.1,1.5,1.3,1.4C59.4,183.2,60.8,183.3,62.1,183.3z"/>
        <path d="M5.2,181.2c0-5.1,0-10.2,0-15.3c0-3.2,0.7-3.9,3.9-4c1.8-0.1,3.7-0.2,5.5-0.2c3.9-0.1,7.8,0.3,11.2,2.6
		c3,2.1,4.9,4.9,5.4,8.5c0.7,5.6,0.8,11.3,0,16.9c-0.8,5.4-4.6,9.4-10.5,10.5c-4.4,0.8-8.8,0.4-13.1-0.1c-2.1-0.2-2.4-0.7-2.4-2.9
		C5.2,191.9,5.2,186.6,5.2,181.2z M11.5,181.3c0,4.2,0,8.4,0,12.6c0,1,0.2,1.3,1.2,1.2c1.6-0.1,3.3,0.1,4.9,0c3.7-0.3,6-1.7,7.3-5.3
		c0.7-2,0.8-4,0.9-6c0.2-2.8,0.2-5.7-0.3-8.5c-0.6-3.3-1.7-6.3-5.8-7.5c-0.8-0.2-1.5-0.3-2.3-0.3c-1.9,0.1-4.4-0.8-5.5,0.3
		c-1.1,1.1-0.3,3.6-0.3,5.5C11.5,175.8,11.5,178.5,11.5,181.3z"/>
        <path d="M442.2,188.4c-2.1,0-4.2,0.1-6.4,0c-1.1,0-1.5,0.2-1.4,1.4c0.1,3,1.6,5.5,5.3,5.4c3.1-0.1,6.1,0.1,9.2-0.3
		c1.3-0.2,1.8,0.5,1.8,1.8c0,2.8,0,3.1-2.6,3.5c-4.5,0.6-9.1,1.5-13.6-0.4c-3-1.3-4.9-3.5-5.6-6.4c-1-4.6-1.1-9.4,0-13.9
		c1-4.4,4.6-7.4,9.3-7.7c3.3-0.3,6.4,0.1,9.1,2.2c2.4,1.9,3.6,4.4,3.9,7.3c0.2,1.4,0.5,2.9,0.4,4.4c-0.1,2.2-0.9,3-3.1,3
		C446.5,188.4,444.4,188.4,442.2,188.4z M439.7,183.3c1.5,0,3.1,0,4.6,0c0.7,0,0.9-0.2,0.9-0.9c0.1-3-1.7-5.5-5.1-5.6
		c-4,0-5.4,2.3-5.7,5.2c-0.1,0.9,0.1,1.4,1.2,1.3C437,183.2,438.4,183.3,439.7,183.3z"/>
</svg>
